HIERARCHY
ROOT hip
{
  OFFSET 0 0 0
  CHANNELS 6 Xposition Yposition Zposition Zrotation Yrotation Xrotation
  JOINT abdomen
  {
    OFFSET 0 20.6881 -0.73152
    CHANNELS 3 Zrotation Xrotation Yrotation
    JOINT chest
    {
      OFFSET 0 11.7043 -0.48768
      CHANNELS 3 Zrotation Xrotation Yrotation
      JOINT neck
      {
        OFFSET 0 22.1894 -2.19456
        CHANNELS 3 Zrotation Xrotation Yrotation
        JOINT head
        {
          OFFSET -0.24384 7.07133 1.2192
          CHANNELS 3 Zrotation Xrotation Yrotation
          JOINT leftEye
          {
            OFFSET 4.14528 8.04674 8.04672
            CHANNELS 3 Zrotation Xrotation Yrotation
            End Site
            {
              OFFSET 1 0 0
            }
          }
          JOINT rightEye
          {
            OFFSET -3.6576 8.04674 8.04672
            CHANNELS 3 Zrotation Xrotation Yrotation
            End Site
            {
              OFFSET 1 0 0
            }
          }
        }
      }
      JOINT rCollar
      {
        OFFSET -2.68224 19.2634 -4.8768
        CHANNELS 3 Zrotation Xrotation Yrotation
        JOINT rShldr
        {
          OFFSET -8.77824 -1.95073 1.46304
          CHANNELS 3 Zrotation Xrotation Yrotation
          JOINT rForeArm
          {
            OFFSET -28.1742 -1.7115 0.48768
            CHANNELS 3 Zrotation Xrotation Yrotation
            JOINT rHand
            {
              OFFSET -22.5879 0.773209 7.07136
              CHANNELS 3 Zrotation Xrotation Yrotation
              JOINT rThumb1
              {
                OFFSET -1.2192 -0.487915 3.41376
                CHANNELS 3 Zrotation Xrotation Yrotation
                JOINT rThumb2
                {
                  OFFSET -3.37035 -0.52449 3.41376
                  CHANNELS 3 Zrotation Xrotation Yrotation
                  End Site
                  {
                    OFFSET -1.78271 -1.18214 1.43049
                  }
                }
              }
              JOINT rIndex1
              {
                OFFSET -7.75947 0.938293 5.60832
                CHANNELS 3 Zrotation Xrotation Yrotation
                JOINT rIndex2
                {
                  OFFSET -2.54057 -0.884171 1.56538
                  CHANNELS 3 Zrotation Xrotation Yrotation
                  End Site
                  {
                    OFFSET -1.62519 -0.234802 1.16502
                  }
                }
              }
              JOINT rMid1
              {
                OFFSET -8.24714 1.18213 3.41376
                CHANNELS 3 Zrotation Xrotation Yrotation
                JOINT rMid2
                {
                  OFFSET -3.10165 -0.590103 1.0647
                  CHANNELS 3 Zrotation Xrotation Yrotation
                  End Site
                  {
                    OFFSET -2.48547 -0.328903 0.83742
                  }
                }
              }
              JOINT rRing1
              {
                OFFSET -8.82822 0.546677 1.51678
                CHANNELS 3 Zrotation Xrotation Yrotation
                JOINT rRing2
                {
                  OFFSET -2.60934 -0.819778 -0.0198488
                  CHANNELS 3 Zrotation Xrotation Yrotation
                  End Site
                  {
                    OFFSET -2.33842 -0.294052 0.168128
                  }
                }
              }
              JOINT rPinky1
              {
                OFFSET -8.27202 -0.0477905 -0.4584
                CHANNELS 3 Zrotation Xrotation Yrotation
                JOINT rPinky2
                {
                  OFFSET -1.82734 -0.647385 -0.700984
                  CHANNELS 3 Zrotation Xrotation Yrotation
                  End Site
                  {
                    OFFSET -1.69225 -0.51767 -0.607171
                  }
                }
              }
            }
          }
        }
      }
      JOINT lCollar
      {
        OFFSET 2.68224 19.2634 -4.8768
        CHANNELS 3 Zrotation Xrotation Yrotation
        JOINT lShldr
        {
          OFFSET 8.77824 -1.95073 1.46304
          CHANNELS 3 Zrotation Xrotation Yrotation
          JOINT lForeArm
          {
            OFFSET 28.1742 -1.7115 0.48768
            CHANNELS 3 Zrotation Xrotation Yrotation
            JOINT lHand
            {
              OFFSET 22.5879 0.773209 7.07136
              CHANNELS 3 Zrotation Xrotation Yrotation
              JOINT lThumb1
              {
                OFFSET 1.2192 -0.487915 3.41376
                CHANNELS 3 Zrotation Xrotation Yrotation
                JOINT lThumb2
                {
                  OFFSET 3.37035 -0.52449 3.41376
                  CHANNELS 3 Zrotation Xrotation Yrotation
                  End Site
                  {
                    OFFSET 1.78271 -1.18214 1.43049
                  }
                }
              }
              JOINT lIndex1
              {
                OFFSET 7.75947 0.938293 5.60832
                CHANNELS 3 Zrotation Xrotation Yrotation
                JOINT lIndex2
                {
                  OFFSET 2.54057 -0.884171 1.56538
                  CHANNELS 3 Zrotation Xrotation Yrotation
                  End Site
                  {
                    OFFSET 1.62519 -0.234802 1.16502
                  }
                }
              }
              JOINT lMid1
              {
                OFFSET 8.24714 1.18213 3.41376
                CHANNELS 3 Zrotation Xrotation Yrotation
                JOINT lMid2
                {
                  OFFSET 3.10165 -0.590103 1.0647
                  CHANNELS 3 Zrotation Xrotation Yrotation
                  End Site
                  {
                    OFFSET 2.48547 -0.328903 0.83742
                  }
                }
              }
              JOINT lRing1
              {
                OFFSET 8.82822 0.546677 1.51678
                CHANNELS 3 Zrotation Xrotation Yrotation
                JOINT lRing2
                {
                  OFFSET 2.60934 -0.819778 -0.0198488
                  CHANNELS 3 Zrotation Xrotation Yrotation
                  End Site
                  {
                    OFFSET 2.33842 -0.294052 0.168128
                  }
                }
              }
              JOINT lPinky1
              {
                OFFSET 8.27202 -0.0477905 -0.4584
                CHANNELS 3 Zrotation Xrotation Yrotation
                JOINT lPinky2
                {
                  OFFSET 1.82734 -0.647385 -0.700984
                  CHANNELS 3 Zrotation Xrotation Yrotation
                  End Site
                  {
                    OFFSET 1.69225 -0.51767 -0.607171
                  }
                }
              }
            }
          }
        }
      }
    }
  }
  JOINT rButtock
  {
    OFFSET -8.77824 4.35084 1.2192
    CHANNELS 3 Zrotation Xrotation Yrotation
    JOINT rThigh
    {
      OFFSET 0 -1.70687 -2.19456
      CHANNELS 3 Zrotation Xrotation Yrotation
      JOINT rShin
      {
        OFFSET 0 -36.8199 0.73152
        CHANNELS 3 Zrotation Xrotation Yrotation
        JOINT rFoot
        {
          OFFSET 0.73152 -45.1104 -5.12064
          CHANNELS 3 Zrotation Xrotation Yrotation
          End Site
          {
            OFFSET -1.1221 -3.69964 12.103
          }
        }
      }
    }
  }
  JOINT lButtock
  {
    OFFSET 8.77824 4.35084 1.2192
    CHANNELS 3 Zrotation Xrotation Yrotation
    JOINT lThigh
    {
      OFFSET 0 -1.70687 -2.19456
      CHANNELS 3 Zrotation Xrotation Yrotation
      JOINT lShin
      {
        OFFSET 0 -36.8199 0.73152
        CHANNELS 3 Zrotation Xrotation Yrotation
        JOINT lFoot
        {
          OFFSET -0.73152 -45.1104 -5.12064
          CHANNELS 3 Zrotation Xrotation Yrotation
          End Site
          {
            OFFSET 1.1221 -3.69964 12.103
          }
        }
      }
    }
  }
}
MOTION
Frames:	9
Frame Time:	0.00833333
2.10454 84.1002 -32.5132 0.0 0.0 0.0 -1.51925 -0.00282957 -0.0413933 -0.418697 0.00102582 -0.072511 -2.72538e-15 -1.59028e-15 -1.73937e-16 -8.28684e-15 3.18055e-15 -4.22417e-16 -0.0 0.0 0.0 -0.0 0.0 0.0 -1.44283e-15 -4.62019e-17 9.93923e-17 -2.62591e-14 -9.93923e-16 -7.95139e-16 -5.06802e-13 1.2106e-13 -3.81667e-14 -5.79727e-12 -3.17409e-13 -3.08514e-13 -1.36802e-11 -4.27057e-13 -7.34708e-13 -2.36275e-11 -7.37889e-13 -1.2754e-12 -1.36744e-11 -4.23809e-13 -7.50611e-13 7.73091 5.47488 0.417314 -1.36796e-11 -4.26493e-13 -7.37889e-13 2.90554 0.965183 0.102902 -1.36692e-11 -4.26393e-13 -7.37889e-13 10.2786 0.731801 0.0259123 -1.36806e-11 -4.26989e-13 -7.25166e-13 2.22167 -0.733487 -0.20892 -1.43965e-15 -4.52313e-17 -1.98785e-16 -3.14061e-14 -1.00635e-15 -2.78299e-15 -5.04217e-13 -1.86062e-13 -3.81667e-14 -5.81811e-12 -2.0773e-14 -3.02153e-13 -1.37143e-11 -4.47061e-13 -7.41069e-13 -2.36772e-11 -7.72875e-13 -1.28017e-12 -1.37213e-11 -4.44483e-13 -7.41069e-13 -7.73091 5.47488 -0.417314 -1.37153e-11 -4.46868e-13 -7.4743e-13 -2.90554 0.965183 -0.102902 -1.37216e-11 -4.4657e-13 -7.4266e-13 -10.2786 0.731801 -0.0259123 -1.37096e-11 -4.47663e-13 -7.53791e-13 -2.22167 -0.733487 0.20892 -2.03217e-16 0.0 -3.88251e-19 -0.640684 -1.92322 -0.00643388 -0.0092536 -2.07856 -0.0764186 -0.511998 3.99733 0.140289 2.03217e-16 0.0 3.88251e-19 -1.66988 -6.4978 0.154704 -0.00230958 6.20797 -0.0679739 0.534202 0.285504 -0.0665865
-0.0110817 82.4859 -35.8253 -7.7266 -5.8783 11.3329 -0.762996 -2.928 -0.21824 0.912368 0.98152 -0.181987 -1.73756 -0.403958 -2.65634 0.130743 1.14835 -4.72254 -0.0 0.0 0.0 -0.0 0.0 0.0 8.10206e-15 2.72028e-14 2.99804e-14 21.4089 5.88036 0.515621 -4.12836 -1.85797 6.4673 0.0119618 -2.42643 -0.339908 -3.05181e-10 7.59062e-10 -2.4508e-10 -5.26897e-10 1.31318e-09 -4.25224e-10 -3.05177e-10 7.59064e-10 -2.45093e-10 7.73091 5.47488 0.417314 -3.05181e-10 7.59062e-10 -2.45082e-10 2.90554 0.965183 0.102902 -3.05171e-10 7.59062e-10 -2.45083e-10 10.2786 0.731801 0.0259123 -3.05182e-10 7.59062e-10 -2.45073e-10 2.22167 -0.733487 -0.20892 8.09242e-15 2.7204e-14 2.96663e-14 -22.2714 5.13935 -0.736309 3.62621 -1.545 -5.77036 -0.00143723 -0.850877 0.119538 -4.73642e-10 -1.17637e-10 3.62406e-10 -8.19314e-10 -2.03841e-10 6.26105e-10 -4.7365e-10 -1.17635e-10 3.62413e-10 -7.73091 5.47488 -0.417314 -4.73643e-10 -1.17638e-10 3.62405e-10 -2.90554 0.965183 -0.102902 -4.73649e-10 -1.17638e-10 3.62407e-10 -10.2786 0.731801 -0.0259123 -4.73638e-10 -1.17638e-10 3.62396e-10 -2.22167 -0.733487 0.20892 -2.03217e-16 0.0 -3.88251e-19 0.844446 -5.64623 0.798264 -0.00968923 3.70302 0.0356432 -0.636039 1.13607 -2.06299 2.03217e-16 0.0 3.88251e-19 0.607951 -9.27276 0.864284 -0.0235616 11.518 -0.163327 0.737972 -3.36418 2.24416
0.0242127 82.4866 -35.8193 -7.5658 -5.8838 11.3028 0.0171836 -6.01267 -0.406162 2.32212 2.02718 -0.297953 -3.61858 -0.856798 -5.46678 0.476857 2.34765 -9.72074 -0.0 0.0 0.0 -0.0 0.0 0.0 1.88129e-14 5.75026e-14 6.4136e-14 43.9195 12.0886 1.09882 -8.03946 -3.74304 13.3255 -0.00680478 -4.99115 -0.701261 -6.32841e-10 1.60314e-09 -5.04542e-10 -1.09266e-09 2.77349e-09 -8.75466e-10 -6.32839e-10 1.60314e-09 -5.04552e-10 7.73091 5.47488 0.417314 -6.3284e-10 1.60314e-09 -5.04543e-10 2.90554 0.965183 0.102902 -6.32831e-10 1.60314e-09 -5.04546e-10 10.2786 0.731801 0.0259123 -6.32842e-10 1.60314e-09 -5.04538e-10 2.22167 -0.733487 -0.20892 1.87897e-14 5.7504e-14 6.38037e-14 -45.6664 10.556 -1.55309 7.11927 -3.12354 -11.8778 0.000914334 -1.73541 0.243894 -9.86495e-10 -2.54285e-10 7.50688e-10 -1.70646e-09 -4.40541e-10 1.29685e-09 -9.86502e-10 -2.54282e-10 7.50701e-10 -7.73091 5.47488 -0.417314 -9.86495e-10 -2.54286e-10 7.50691e-10 -2.90554 0.965183 -0.102902 -9.865e-10 -2.54286e-10 7.50691e-10 -10.2786 0.731801 -0.0259123 -9.8649e-10 -2.54286e-10 7.50681e-10 -2.22167 -0.733487 0.20892 -2.03217e-16 0.0 -3.88251e-19 2.5291 -9.58221 1.6692 -0.0349564 9.82061 0.156357 -1.00719 -1.89204 -4.39494 2.03217e-16 0.0 3.88251e-19 3.09227 -12.2021 1.62625 -0.0259621 17.1273 -0.269675 1.27487 -7.19978 4.71571
0.0111347 82.4859 -35.8392 -7.6114 -5.8148 11.3554 0.694775 -8.77796 -0.577848 3.58575 2.94245 -0.401387 -5.32465 -1.20146 -7.97058 0.954527 3.35155 -14.1895 -0.0 0.0 0.0 -0.0 0.0 0.0 2.71918e-14 8.17009e-14 8.97423e-14 63.8958 17.6352 1.61462 -11.149 -5.29042 19.478 -0.0510758 -7.27825 -1.02709 -8.88184e-10 2.27804e-09 -7.33769e-10 -1.53344e-09 3.94102e-09 -1.27312e-09 -8.88184e-10 2.27804e-09 -7.33777e-10 7.73091 5.47488 0.417314 -8.88183e-10 2.27804e-09 -7.33769e-10 2.90554 0.965183 0.102902 -8.88174e-10 2.27804e-09 -7.33774e-10 10.2786 0.731801 0.0259123 -8.88186e-10 2.27804e-09 -7.33767e-10 2.22167 -0.733487 -0.20892 2.71566e-14 8.17024e-14 8.93964e-14 -66.4054 15.4077 -2.28211 9.95845 -4.44729 -17.3587 0.00634848 -2.55259 0.358929 -1.3935e-09 -3.52017e-10 1.0887e-09 -2.41059e-09 -6.09976e-10 1.88088e-09 -1.39351e-09 -3.52015e-10 1.08872e-09 -7.73091 5.47488 -0.417314 -1.3935e-09 -3.52019e-10 1.08871e-09 -2.90554 0.965183 -0.102902 -1.3935e-09 -3.5202e-10 1.08871e-09 -10.2786 0.731801 -0.0259123 -1.39349e-09 -3.52019e-10 1.0887e-09 -2.22167 -0.733487 0.20892 -2.03217e-16 0.0 -3.88251e-19 4.13577 -13.0822 2.45992 -0.0800085 15.266 0.268932 -1.54391 -4.55504 -6.48823 2.03217e-16 0.0 3.88251e-19 5.3766 -14.814 2.329 -0.00885962 22.1379 -0.372419 2.03913 -10.5941 6.9735
0.00575078 82.485 -35.848 -7.6371 -5.7902 11.3836 1.15416 -10.7451 -0.703521 4.47598 3.53184 -0.473061 -6.50166 -1.28731 -9.70587 1.35789 3.95806 -17.313 -0.0 0.0 0.0 -0.0 0.0 0.0 2.97409e-14 9.0645e-14 9.39755e-14 77.7949 21.5345 1.89195 -13.1169 -6.26347 23.7935 -0.097529 -8.87229 -1.25708 -9.62737e-10 2.53002e-09 -8.8741e-10 -1.66176e-09 4.37657e-09 -1.53931e-09 -9.62738e-10 2.53002e-09 -8.87416e-10 7.73091 5.47488 0.417314 -9.62736e-10 2.53002e-09 -8.8741e-10 2.90554 0.965183 0.102902 -9.62728e-10 2.53002e-09 -8.87415e-10 10.2786 0.731801 0.0259123 -9.6274e-10 2.53002e-09 -8.8741e-10 2.22167 -0.733487 -0.20892 2.96977e-14 9.06466e-14 9.36276e-14 -80.8118 18.8578 -2.7188 11.8025 -5.31118 -21.2284 0.0125864 -3.2014 0.450402 -1.53588e-09 -3.52463e-10 1.30104e-09 -2.65714e-09 -6.11245e-10 2.24811e-09 -1.53589e-09 -3.52461e-10 1.30107e-09 -7.73091 5.47488 -0.417314 -1.53588e-09 -3.52465e-10 1.30105e-09 -2.90554 0.965183 -0.102902 -1.53589e-09 -3.52465e-10 1.30105e-09 -10.2786 0.731801 -0.0259123 -1.53588e-09 -3.52465e-10 1.30104e-09 -2.22167 -0.733487 0.20892 -2.03217e-16 0.0 -3.88251e-19 5.31472 -15.5019 3.002 -0.124661 19.0311 0.351219 -2.02465 -6.3405 -7.95461 2.03217e-16 0.0 3.88251e-19 7.01038 -16.6394 2.84675 0.0154845 25.6522 -0.450542 2.73926 -12.9518 8.59353
0.0150854 82.4851 -35.8428 -7.6087 -5.8003 11.3701 1.31886 -11.6079 -0.760197 4.84552 3.65538 -0.499443 -6.89326 -0.972726 -10.362 1.4811 4.04734 -18.5402 -0.0 0.0 0.0 -0.0 0.0 0.0 2.25438e-14 7.72086e-14 6.06103e-14 83.3181 23.1437 1.75738 -13.8454 -6.61652 25.4906 -0.119499 -9.50586 -1.3493 -7.3265e-10 2.10859e-09 -9.7931e-10 -1.26332e-09 3.64631e-09 -1.69751e-09 -7.32651e-10 2.10859e-09 -9.79318e-10 7.73091 5.47488 0.417314 -7.3265e-10 2.10859e-09 -9.79311e-10 2.90554 0.965183 0.102902 -7.32641e-10 2.10859e-09 -9.79317e-10 10.2786 0.731801 0.0259123 -7.32653e-10 2.10859e-09 -9.79312e-10 2.22167 -0.733487 -0.20892 2.25045e-14 7.72099e-14 6.02768e-14 -86.5108 20.3731 -2.66014 12.531 -5.65792 -22.8268 0.0170942 -3.636 0.511731 -1.24028e-09 -1.39473e-10 1.37122e-09 -2.14643e-09 -2.43651e-10 2.37044e-09 -1.24029e-09 -1.39472e-10 1.37124e-09 -7.73091 5.47488 -0.417314 -1.24028e-09 -1.39474e-10 1.37123e-09 -2.90554 0.965183 -0.102902 -1.24029e-09 -1.39475e-10 1.37123e-09 -10.2786 0.731801 -0.0259123 -1.24028e-09 -1.39475e-10 1.37122e-09 -2.22167 -0.733487 0.20892 -2.03217e-16 0.0 -3.88251e-19 5.78413 -16.4158 3.15727 -0.144842 20.4457 0.382769 -2.21633 -6.91455 -8.51332 2.03217e-16 0.0 3.88251e-19 7.65971 -17.3657 3.07891 0.029119 27.0718 -0.483831 3.06228 -13.911 9.25028
0.0110285 82.4851 -35.841 -7.6381 -5.7669 11.3717 1.27785 -11.6813 -0.766421 4.84215 3.44666 -0.493436 -6.72335 -0.374995 -10.2483 1.37064 3.78458 -18.4102 -0.0 0.0 0.0 -0.0 0.0 0.0 8.46073e-15 4.78349e-14 7.54754e-16 82.8787 23.1163 1.31826 -13.7681 -6.57998 25.3069 -0.117407 -9.45314 -1.34159 -2.87416e-10 1.21002e-09 -1.02501e-09 -4.92874e-10 2.09004e-09 -1.77495e-09 -2.87417e-10 1.21002e-09 -1.02502e-09 7.73091 5.47488 0.417314 -2.87417e-10 1.21002e-09 -1.02501e-09 2.90554 0.965183 0.102902 -2.87408e-10 1.21002e-09 -1.02502e-09 10.2786 0.731801 0.0259123 -2.8742e-10 1.21002e-09 -1.02501e-09 2.22167 -0.733487 -0.20892 8.43341e-15 4.78356e-14 4.47267e-16 -86.0197 20.5062 -2.23489 12.5244 -5.67142 -22.7948 0.0196151 -3.91655 0.551331 -6.35055e-10 2.22294e-10 1.33824e-09 -1.10037e-09 3.81063e-10 2.31504e-09 -6.35065e-10 2.22294e-10 1.33826e-09 -7.73091 5.47488 -0.417314 -6.35054e-10 2.22293e-10 1.33825e-09 -2.90554 0.965183 -0.102902 -6.35063e-10 2.22292e-10 1.33825e-09 -10.2786 0.731801 -0.0259123 -6.35052e-10 2.22292e-10 1.33824e-09 -2.22167 -0.733487 0.20892 -2.03217e-16 0.0 -3.88251e-19 5.72325 -16.2557 3.02786 -0.141729 20.1812 0.37553 -2.15562 -6.63186 -8.41536 2.03217e-16 0.0 3.88251e-19 7.58848 -17.3085 3.10097 0.0296312 26.9952 -0.481953 3.04584 -13.8852 9.19672
0.00489949 82.4868 -35.839 -7.6578 -5.7629 11.3783 1.16557 -11.4185 -0.753576 4.6807 3.12041 -0.47537 -6.34984 0.264643 -9.83147 1.18012 3.41619 -17.7367 -0.0 0.0 0.0 -0.0 0.0 0.0 -5.84208e-15 1.37262e-14 -5.74158e-14 80.0263 22.4136 0.805316 -13.3712 -6.38974 24.3766 -0.105284 -9.11131 -1.29178 1.61421e-10 2.50704e-10 -9.81701e-10 2.83444e-10 4.29051e-10 -1.69839e-09 1.61421e-10 2.50702e-10 -9.81715e-10 7.73091 5.47488 0.417314 1.61419e-10 2.50704e-10 -9.81706e-10 2.90554 0.965183 0.102902 1.61429e-10 2.50705e-10 -9.81711e-10 10.2786 0.731801 0.0259123 1.61417e-10 2.50705e-10 -9.81704e-10 2.22167 -0.733487 -0.20892 -5.8637e-15 1.37263e-14 -5.76926e-14 -83.0243 20.0533 -1.71828 12.2167 -5.54625 -22.0909 0.0209159 -4.10118 0.577387 -1.39961e-11 5.19996e-10 1.20997e-09 -2.68335e-11 8.95133e-10 2.0948e-09 -1.40067e-11 5.19996e-10 1.20998e-09 -7.73091 5.47488 -0.417314 -1.39946e-11 5.19997e-10 1.20997e-09 -2.90554 0.965183 -0.102902 -1.40056e-11 5.19996e-10 1.20997e-09 -10.2786 0.731801 -0.0259123 -1.3994e-11 5.19995e-10 1.20996e-09 -2.22167 -0.733487 0.20892 -2.03217e-16 0.0 -3.88251e-19 5.4585 -15.6656 2.79556 -0.129502 19.2424 0.352926 -2.00044 -6.02323 -8.05725 2.03217e-16 0.0 3.88251e-19 7.23446 -16.9419 3.04599 0.0247758 26.3203 -0.465907 2.88954 -13.4576 8.85318
0.00168364 82.4996 -35.8384 -7.6452 -5.8534 11.3696 1.1156 -11.2725 -0.753304 4.57572 2.89139 -0.465534 -6.11126 0.701488 -9.57612 1.05136 3.19211 -17.3313 -0.0 0.0 0.0 -0.0 0.0 0.0 -1.36983e-14 -1.39153e-14 -8.57259e-14 78.3374 21.9996 0.4393 -13.1376 -6.27918 23.8345 -0.0976453 -8.87754 -1.25784 4.02319e-10 -3.52959e-10 -8.0657e-10 6.99492e-10 -6.1539e-10 -1.39459e-09 4.0232e-10 -3.5296e-10 -8.06585e-10 7.73091 5.47488 0.417314 4.02316e-10 -3.52959e-10 -8.06576e-10 2.90554 0.965183 0.102902 4.02326e-10 -3.52957e-10 -8.06579e-10 10.2786 0.731801 0.0259123 4.02315e-10 -3.52957e-10 -8.06573e-10 2.22167 -0.733487 -0.20892 -1.37349e-14 -1.39153e-14 -8.59744e-14 -81.2273 19.8132 -1.38056 12.0334 -5.47207 -21.6745 0.0221831 -4.24798 0.598121 3.29095e-10 5.40796e-10 9.94245e-10 5.66328e-10 9.30796e-10 1.7226e-09 3.29085e-10 5.40796e-10 9.94254e-10 -7.73091 5.47488 -0.417314 3.29097e-10 5.40798e-10 9.94241e-10 -2.90554 0.965183 -0.102902 3.29085e-10 5.40797e-10 9.94243e-10 -10.2786 0.731801 -0.0259123 3.29097e-10 5.40796e-10 9.94238e-10 -2.22167 -0.733487 0.20892 -2.03217e-16 0.0 -3.88251e-19 5.31196 -15.2898 2.64096 -0.122211 18.6341 0.338326 -1.90415 -5.62014 -7.83406 2.03217e-16 0.0 3.88251e-19 7.03768 -16.7398 3.0478 0.0227886 25.9451 -0.456982 2.79922 -13.21 8.64225
